# This file was created with Minddesk Qubicle 3.0
# Get Qubicle at www.getqubicle.com

mtllib cloud_2.mtl

vn 0.0 0.0 1.0
vn 0.0 0.0 -1.0
vn -1.0 0.0 0.0
vn 1.0 0.0 0.0
vn 0.0 1.0 0.0
vn 0.0 -1.0 0.0

v 20.00000 10.00000 -1.00000
v 20.00000 7.00000 -1.00000
v -19.00000 7.00000 -1.00000
v -19.00000 10.00000 -1.00000
v 18.00000 7.00000 -1.00000
v 18.00000 5.00000 -1.00000
v -20.00000 5.00000 -1.00000
v -20.00000 7.00000 -1.00000
v 17.00000 5.00000 -1.00000
v 17.00000 4.00000 -1.00000
v -20.00000 4.00000 -1.00000
v 16.00000 4.00000 -1.00000
v 16.00000 3.00000 -1.00000
v -19.00000 3.00000 -1.00000
v -19.00000 4.00000 -1.00000
v 15.00000 3.00000 -1.00000
v 15.00000 2.00000 -1.00000
v -18.00000 2.00000 -1.00000
v -18.00000 3.00000 -1.00000
v 18.00000 11.00000 -1.00000
v 18.00000 10.00000 -1.00000
v -18.00000 10.00000 -1.00000
v -18.00000 11.00000 -1.00000
v 18.00000 12.00000 -1.00000
v -16.00000 11.00000 -1.00000
v -16.00000 12.00000 -1.00000
v 16.00000 13.00000 -1.00000
v 16.00000 12.00000 -1.00000
v -16.00000 13.00000 -1.00000
v 13.00000 2.00000 -1.00000
v 13.00000 1.00000 -1.00000
v -14.00000 1.00000 -1.00000
v -14.00000 2.00000 -1.00000
v 10.00000 1.00000 -1.00000
v 10.00000 0.00000 -1.00000
v -13.00000 0.00000 -1.00000
v -13.00000 1.00000 -1.00000
v 14.00000 14.00000 -1.00000
v 14.00000 13.00000 -1.00000
v -13.00000 13.00000 -1.00000
v -13.00000 14.00000 -1.00000
v 12.00000 15.00000 -1.00000
v 12.00000 14.00000 -1.00000
v -9.00000 14.00000 -1.00000
v -9.00000 15.00000 -1.00000
v 8.00000 16.00000 -1.00000
v 8.00000 15.00000 -1.00000
v -9.00000 16.00000 -1.00000
v 7.00000 17.00000 -1.00000
v 7.00000 16.00000 -1.00000
v -8.00000 16.00000 -1.00000
v -8.00000 17.00000 -1.00000
v 6.00000 18.00000 -1.00000
v 6.00000 17.00000 -1.00000
v -4.00000 17.00000 -1.00000
v -4.00000 18.00000 -1.00000
v 5.00000 19.00000 -1.00000
v 5.00000 18.00000 -1.00000
v -3.00000 18.00000 -1.00000
v -3.00000 19.00000 -1.00000
v 3.00000 20.00000 -1.00000
v 3.00000 19.00000 -1.00000
v -2.00000 19.00000 -1.00000
v -2.00000 20.00000 -1.00000
v -19.00000 10.00000 0.00000
v -19.00000 7.00000 0.00000
v 20.00000 7.00000 0.00000
v 20.00000 10.00000 0.00000
v -20.00000 7.00000 0.00000
v -20.00000 5.00000 0.00000
v 18.00000 5.00000 0.00000
v 18.00000 7.00000 0.00000
v -20.00000 4.00000 0.00000
v 17.00000 4.00000 0.00000
v 17.00000 5.00000 0.00000
v -19.00000 4.00000 0.00000
v -19.00000 3.00000 0.00000
v 16.00000 3.00000 0.00000
v 16.00000 4.00000 0.00000
v -18.00000 3.00000 0.00000
v -18.00000 2.00000 0.00000
v 15.00000 2.00000 0.00000
v 15.00000 3.00000 0.00000
v -18.00000 11.00000 0.00000
v -18.00000 10.00000 0.00000
v 18.00000 10.00000 0.00000
v 18.00000 11.00000 0.00000
v -16.00000 12.00000 0.00000
v -16.00000 11.00000 0.00000
v 18.00000 12.00000 0.00000
v -16.00000 13.00000 0.00000
v 16.00000 12.00000 0.00000
v 16.00000 13.00000 0.00000
v -14.00000 2.00000 0.00000
v -14.00000 1.00000 0.00000
v 13.00000 1.00000 0.00000
v 13.00000 2.00000 0.00000
v -13.00000 1.00000 0.00000
v -13.00000 0.00000 0.00000
v 10.00000 0.00000 0.00000
v 10.00000 1.00000 0.00000
v -13.00000 14.00000 0.00000
v -13.00000 13.00000 0.00000
v 14.00000 13.00000 0.00000
v 14.00000 14.00000 0.00000
v -9.00000 15.00000 0.00000
v -9.00000 14.00000 0.00000
v 12.00000 14.00000 0.00000
v 12.00000 15.00000 0.00000
v -9.00000 16.00000 0.00000
v 8.00000 15.00000 0.00000
v 8.00000 16.00000 0.00000
v -8.00000 17.00000 0.00000
v -8.00000 16.00000 0.00000
v 7.00000 16.00000 0.00000
v 7.00000 17.00000 0.00000
v -4.00000 18.00000 0.00000
v -4.00000 17.00000 0.00000
v 6.00000 17.00000 0.00000
v 6.00000 18.00000 0.00000
v -3.00000 19.00000 0.00000
v -3.00000 18.00000 0.00000
v 5.00000 18.00000 0.00000
v 5.00000 19.00000 0.00000
v -2.00000 20.00000 0.00000
v -2.00000 19.00000 0.00000
v 3.00000 19.00000 0.00000
v 3.00000 20.00000 0.00000

vt 0.01563 0.06250
vt 0.01563 0.01563
vt 0.62500 0.01563
vt 0.62500 0.06250
vt 0.01563 0.14063
vt 0.01563 0.09375
vt 0.62500 0.09375
vt 0.62500 0.14063
vt 0.65625 0.06250
vt 0.65625 0.01563
vt 0.67188 0.01563
vt 0.67188 0.06250
vt 0.70313 0.06250
vt 0.70313 0.01563
vt 0.71875 0.01563
vt 0.71875 0.06250
vt 0.75000 0.06250
vt 0.75000 0.01563
vt 0.76563 0.01563
vt 0.76563 0.06250
vt 0.01563 0.20313
vt 0.01563 0.17188
vt 0.60938 0.17188
vt 0.60938 0.20313
vt 0.01563 0.26563
vt 0.01563 0.23438
vt 0.60938 0.23438
vt 0.60938 0.26563
vt 0.79688 0.04688
vt 0.79688 0.01563
vt 0.81250 0.01563
vt 0.81250 0.04688
vt 0.84375 0.04688
vt 0.84375 0.01563
vt 0.85938 0.01563
vt 0.85938 0.04688
vt 0.89063 0.04688
vt 0.89063 0.01563
vt 0.90625 0.01563
vt 0.90625 0.04688
vt 0.93750 0.04688
vt 0.93750 0.01563
vt 0.95313 0.01563
vt 0.95313 0.04688
vt 0.01563 0.31250
vt 0.01563 0.29688
vt 0.59375 0.29688
vt 0.59375 0.31250
vt 0.01563 0.35938
vt 0.01563 0.34375
vt 0.59375 0.34375
vt 0.59375 0.35938
vt 0.01563 0.40625
vt 0.01563 0.39063
vt 0.57813 0.39063
vt 0.57813 0.40625
vt 0.01563 0.45313
vt 0.01563 0.43750
vt 0.57813 0.43750
vt 0.57813 0.45313
vt 0.01563 0.50000
vt 0.01563 0.48438
vt 0.56250 0.48438
vt 0.56250 0.50000
vt 0.01563 0.54688
vt 0.01563 0.53125
vt 0.56250 0.53125
vt 0.56250 0.54688
vt 0.01563 0.59375
vt 0.01563 0.57813
vt 0.54688 0.57813
vt 0.54688 0.59375
vt 0.01563 0.64063
vt 0.01563 0.62500
vt 0.54688 0.62500
vt 0.54688 0.64063
vt 0.01563 0.68750
vt 0.01563 0.67188
vt 0.53125 0.67188
vt 0.53125 0.68750
vt 0.01563 0.73438
vt 0.01563 0.71875
vt 0.53125 0.71875
vt 0.53125 0.73438
vt 0.01563 0.78125
vt 0.01563 0.76563
vt 0.51563 0.76563
vt 0.51563 0.78125
vt 0.01563 0.82813
vt 0.01563 0.81250
vt 0.51563 0.81250
vt 0.51563 0.82813
vt 0.56250 0.68750
vt 0.56250 0.67188
vt 0.98438 0.67188
vt 0.98438 0.68750
vt 0.56250 0.73438
vt 0.56250 0.71875
vt 0.98438 0.71875
vt 0.98438 0.73438
vt 0.54688 0.78125
vt 0.54688 0.76563
vt 0.96875 0.76563
vt 0.96875 0.78125
vt 0.54688 0.82813
vt 0.54688 0.81250
vt 0.96875 0.81250
vt 0.96875 0.82813
vt 0.62500 0.31250
vt 0.62500 0.29688
vt 0.98438 0.29688
vt 0.98438 0.31250
vt 0.62500 0.35938
vt 0.62500 0.34375
vt 0.98438 0.34375
vt 0.98438 0.35938
vt 0.60938 0.40625
vt 0.60938 0.39063
vt 0.96875 0.39063
vt 0.96875 0.40625
vt 0.65625 0.10938
vt 0.65625 0.09375
vt 0.98438 0.09375
vt 0.98438 0.10938
vt 0.64063 0.18750
vt 0.64063 0.17188
vt 0.96875 0.17188
vt 0.96875 0.18750
vt 0.64063 0.25000
vt 0.64063 0.23438
vt 0.90625 0.23438
vt 0.90625 0.25000
vt 0.60938 0.45313
vt 0.60938 0.43750
vt 0.87500 0.43750
vt 0.87500 0.45313
vt 0.59375 0.50000
vt 0.59375 0.48438
vt 0.82813 0.48438
vt 0.82813 0.50000
vt 0.59375 0.54688
vt 0.59375 0.53125
vt 0.82813 0.53125
vt 0.82813 0.54688
vt 0.57813 0.59375
vt 0.57813 0.57813
vt 0.73438 0.57813
vt 0.73438 0.59375
vt 0.76563 0.59375
vt 0.76563 0.57813
vt 0.92188 0.57813
vt 0.92188 0.59375
vt 0.85938 0.50000
vt 0.85938 0.48438
vt 0.98438 0.48438
vt 0.98438 0.50000
vt 0.85938 0.54688
vt 0.85938 0.53125
vt 0.98438 0.53125
vt 0.98438 0.54688
vt 0.90625 0.45313
vt 0.90625 0.43750
vt 0.98438 0.43750
vt 0.98438 0.45313
vt 0.57813 0.64063
vt 0.57813 0.62500
vt 0.65625 0.62500
vt 0.65625 0.64063
vt 0.68750 0.64063
vt 0.68750 0.62500
vt 0.76563 0.62500
vt 0.76563 0.64063
vt 0.79688 0.64063
vt 0.79688 0.62500
vt 0.85938 0.62500
vt 0.85938 0.64063
vt 0.89063 0.64063
vt 0.89063 0.62500
vt 0.95313 0.62500
vt 0.95313 0.64063
vt 0.01563 0.87500
vt 0.01563 0.85938
vt 0.07813 0.85938
vt 0.07813 0.87500
vt 0.10938 0.87500
vt 0.10938 0.85938
vt 0.17188 0.85938
vt 0.17188 0.87500
vt 0.93750 0.25000
vt 0.93750 0.23438
vt 0.98438 0.23438
vt 0.98438 0.25000
vt 0.20313 0.87500
vt 0.20313 0.85938
vt 0.25000 0.85938
vt 0.25000 0.87500
vt 0.95313 0.59375
vt 0.95313 0.57813
vt 0.98438 0.57813
vt 0.98438 0.59375
vt 0.28125 0.87500
vt 0.28125 0.85938
vt 0.31250 0.85938
vt 0.31250 0.87500
vt 0.34375 0.87500
vt 0.34375 0.85938
vt 0.37500 0.85938
vt 0.37500 0.87500
vt 0.40625 0.87500
vt 0.40625 0.85938
vt 0.43750 0.85938
vt 0.43750 0.87500
vt 0.46875 0.87500
vt 0.46875 0.85938
vt 0.50000 0.85938
vt 0.50000 0.87500
vt 0.53125 0.87500
vt 0.53125 0.85938
vt 0.56250 0.85938
vt 0.56250 0.87500
vt 0.59375 0.87500
vt 0.59375 0.85938
vt 0.62500 0.85938
vt 0.62500 0.87500
vt 0.65625 0.87500
vt 0.65625 0.85938
vt 0.68750 0.85938
vt 0.68750 0.87500
vt 0.71875 0.87500
vt 0.71875 0.85938
vt 0.73438 0.85938
vt 0.73438 0.87500
vt 0.76563 0.87500
vt 0.76563 0.85938
vt 0.78125 0.85938
vt 0.78125 0.87500
vt 0.81250 0.87500
vt 0.81250 0.85938
vt 0.82813 0.85938
vt 0.82813 0.87500
vt 0.85938 0.87500
vt 0.85938 0.85938
vt 0.87500 0.85938
vt 0.87500 0.87500
vt 0.90625 0.87500
vt 0.90625 0.85938
vt 0.92188 0.85938
vt 0.92188 0.87500
vt 0.95313 0.87500
vt 0.95313 0.85938
vt 0.96875 0.85938
vt 0.96875 0.87500
vt 0.01563 0.92188
vt 0.01563 0.90625
vt 0.03125 0.90625
vt 0.03125 0.92188
vt 0.06250 0.92188
vt 0.06250 0.90625
vt 0.07813 0.90625
vt 0.07813 0.92188
vt 0.10938 0.92188
vt 0.10938 0.90625
vt 0.12500 0.90625
vt 0.12500 0.92188
vt 0.15625 0.92188
vt 0.15625 0.90625
vt 0.17188 0.90625
vt 0.17188 0.92188
vt 0.20313 0.92188
vt 0.20313 0.90625
vt 0.21875 0.90625
vt 0.21875 0.92188
vt 0.25000 0.92188
vt 0.25000 0.90625
vt 0.26563 0.90625
vt 0.26563 0.92188
vt 0.29688 0.92188
vt 0.29688 0.90625
vt 0.31250 0.90625
vt 0.31250 0.92188
vt 0.34375 0.92188
vt 0.34375 0.90625
vt 0.35938 0.90625
vt 0.35938 0.92188
vt 0.39063 0.92188
vt 0.39063 0.90625
vt 0.40625 0.90625
vt 0.40625 0.92188
vt 0.43750 0.92188
vt 0.43750 0.90625
vt 0.45313 0.90625
vt 0.45313 0.92188
vt 0.48438 0.92188
vt 0.48438 0.90625
vt 0.50000 0.90625
vt 0.50000 0.92188
vt 0.53125 0.92188
vt 0.53125 0.90625
vt 0.54688 0.90625
vt 0.54688 0.92188
vt 0.57813 0.92188
vt 0.57813 0.90625
vt 0.59375 0.90625
vt 0.59375 0.92188
vt 0.62500 0.92188
vt 0.62500 0.90625
vt 0.64063 0.90625
vt 0.64063 0.92188
vt 0.67188 0.92188
vt 0.67188 0.90625
vt 0.68750 0.90625
vt 0.68750 0.92188
vt 0.71875 0.92188
vt 0.71875 0.90625
vt 0.73438 0.90625
vt 0.73438 0.92188
vt 0.76563 0.92188
vt 0.76563 0.90625
vt 0.78125 0.90625
vt 0.78125 0.92188
vt 0.81250 0.92188
vt 0.81250 0.90625
vt 0.82813 0.90625
vt 0.82813 0.92188
vt 0.85938 0.92188
vt 0.85938 0.90625
vt 0.87500 0.90625
vt 0.87500 0.92188
vt 0.90625 0.92188
vt 0.90625 0.90625
vt 0.92188 0.90625
vt 0.92188 0.92188
vt 0.95313 0.92188
vt 0.95313 0.90625
vt 0.96875 0.90625
vt 0.96875 0.92188
vt 0.01563 0.96875
vt 0.01563 0.95313
vt 0.03125 0.95313
vt 0.03125 0.96875
vt 0.06250 0.96875
vt 0.06250 0.95313
vt 0.07813 0.95313
vt 0.07813 0.96875
vt 0.10938 0.96875
vt 0.10938 0.95313
vt 0.12500 0.95313
vt 0.12500 0.96875
vt 0.15625 0.96875
vt 0.15625 0.95313
vt 0.17188 0.95313
vt 0.17188 0.96875
vt 0.20313 0.96875
vt 0.20313 0.95313
vt 0.21875 0.95313
vt 0.21875 0.96875
vt 0.25000 0.96875
vt 0.25000 0.95313
vt 0.26563 0.95313
vt 0.26563 0.96875
vt 0.29688 0.96875
vt 0.29688 0.95313
vt 0.31250 0.95313
vt 0.31250 0.96875
vt 0.34375 0.96875
vt 0.34375 0.95313
vt 0.35938 0.95313
vt 0.35938 0.96875
vt 0.39063 0.96875
vt 0.39063 0.95313
vt 0.40625 0.95313
vt 0.40625 0.96875
vt 0.43750 0.96875
vt 0.43750 0.95313
vt 0.45313 0.95313
vt 0.45313 0.96875

g cloud_2
usemtl cloud_2_Material
f 1/5/2 2/6/2 3/7/2 4/8/2
f 5/25/2 6/26/2 7/27/2 8/28/2
f 9/45/2 10/46/2 11/47/2 7/48/2
f 12/65/2 13/66/2 14/67/2 15/68/2
f 16/81/2 17/82/2 18/83/2 19/84/2
f 20/53/2 21/54/2 22/55/2 23/56/2
f 24/69/2 20/70/2 25/71/2 26/72/2
f 27/85/2 28/86/2 26/87/2 29/88/2
f 30/97/2 31/98/2 32/99/2 33/100/2
f 34/117/2 35/118/2 36/119/2 37/120/2
f 38/105/2 39/106/2 40/107/2 41/108/2
f 42/121/2 43/122/2 44/123/2 45/124/2
f 46/129/2 47/130/2 45/131/2 48/132/2
f 49/137/2 50/138/2 51/139/2 52/140/2
f 53/149/2 54/150/2 55/151/2 56/152/2
f 57/153/2 58/154/2 59/155/2 60/156/2
f 61/161/2 62/162/2 63/163/2 64/164/2
f 65/1/1 66/2/1 67/3/1 68/4/1
f 69/21/1 70/22/1 71/23/1 72/24/1
f 70/49/1 73/50/1 74/51/1 75/52/1
f 76/61/1 77/62/1 78/63/1 79/64/1
f 80/77/1 81/78/1 82/79/1 83/80/1
f 84/57/1 85/58/1 86/59/1 87/60/1
f 88/73/1 89/74/1 87/75/1 90/76/1
f 91/89/1 88/90/1 92/91/1 93/92/1
f 94/93/1 95/94/1 96/95/1 97/96/1
f 98/109/1 99/110/1 100/111/1 101/112/1
f 102/101/1 103/102/1 104/103/1 105/104/1
f 106/125/1 107/126/1 108/127/1 109/128/1
f 110/133/1 106/134/1 111/135/1 112/136/1
f 113/141/1 114/142/1 115/143/1 116/144/1
f 117/145/1 118/146/1 119/147/1 120/148/1
f 121/157/1 122/158/1 123/159/1 124/160/1
f 125/169/1 126/170/1 127/171/1 128/172/1
f 8/13/3 11/14/3 73/15/3 69/16/3
f 4/9/3 3/10/3 66/11/3 65/12/3
f 29/41/3 25/42/3 89/43/3 91/44/3
f 48/37/3 44/38/3 107/39/3 110/40/3
f 15/329/3 14/330/3 77/331/3 76/332/3
f 19/325/3 18/326/3 81/327/3 80/328/3
f 23/337/3 22/338/3 85/339/3 84/340/3
f 33/333/3 32/334/3 95/335/3 94/336/3
f 37/321/3 36/322/3 99/323/3 98/324/3
f 41/309/3 40/310/3 103/311/3 102/312/3
f 52/305/3 51/306/3 114/307/3 113/308/3
f 56/317/3 55/318/3 118/319/3 117/320/3
f 60/313/3 59/314/3 122/315/3 121/316/3
f 64/365/3 63/366/3 126/367/3 125/368/3
f 68/17/4 67/18/4 2/19/4 1/20/4
f 72/33/4 71/34/4 6/35/4 5/36/4
f 90/29/4 86/30/4 21/31/4 24/32/4
f 128/361/4 127/362/4 62/363/4 61/364/4
f 124/373/4 123/374/4 58/375/4 57/376/4
f 120/369/4 119/370/4 54/371/4 53/372/4
f 116/357/4 115/358/4 50/359/4 49/360/4
f 112/345/4 111/346/4 47/347/4 46/348/4
f 101/341/4 100/342/4 35/343/4 34/344/4
f 109/353/4 108/354/4 43/355/4 42/356/4
f 97/349/4 96/350/4 31/351/4 30/352/4
f 105/301/4 104/302/4 39/303/4 38/304/4
f 83/253/4 82/254/4 17/255/4 16/256/4
f 79/249/4 78/250/4 13/251/4 12/252/4
f 93/261/4 92/262/4 28/263/4 27/264/4
f 75/257/4 74/258/4 10/259/4 9/260/4
f 64/165/5 125/166/5 128/167/5 61/168/5
f 29/193/5 91/194/5 103/195/5 40/196/5
f 41/177/5 102/178/5 107/179/5 44/180/5
f 52/181/5 113/182/5 118/183/5 55/184/5
f 47/185/5 111/186/5 109/187/5 42/188/5
f 23/217/5 84/218/5 89/219/5 25/220/5
f 62/213/5 127/214/5 124/215/5 57/216/5
f 43/225/5 108/226/5 105/227/5 38/228/5
f 39/221/5 104/222/5 93/223/5 27/224/5
f 28/209/5 92/210/5 90/211/5 24/212/5
f 21/197/5 86/198/5 68/199/5 1/200/5
f 8/245/5 69/246/5 66/247/5 3/248/5
f 4/233/5 65/234/5 85/235/5 22/236/5
f 48/229/5 110/230/5 114/231/5 51/232/5
f 56/241/5 117/242/5 122/243/5 59/244/5
f 60/237/5 121/238/5 126/239/5 63/240/5
f 58/289/5 123/290/5 120/291/5 53/292/5
f 54/285/5 119/286/5 116/287/5 49/288/5
f 50/297/5 115/298/5 112/299/5 46/300/5
f 99/113/6 36/114/6 35/115/6 100/116/6
f 81/173/6 18/174/6 33/175/6 94/176/6
f 101/189/6 34/190/6 31/191/6 96/192/6
f 97/205/6 30/206/6 17/207/6 82/208/6
f 72/201/6 5/202/6 2/203/6 67/204/6
f 73/293/6 11/294/6 15/295/6 76/296/6
f 77/281/6 14/282/6 19/283/6 80/284/6
f 95/269/6 32/270/6 37/271/6 98/272/6
f 83/265/6 16/266/6 13/267/6 78/268/6
f 79/277/6 12/278/6 10/279/6 74/280/6
f 75/273/6 9/274/6 6/275/6 71/276/6
