# This file was created with Minddesk Qubicle 3.0
# Get Qubicle at www.getqubicle.com

mtllib cloud_3.mtl

vn 0.0 0.0 1.0
vn 0.0 0.0 -1.0
vn -1.0 0.0 0.0
vn 1.0 0.0 0.0
vn 0.0 1.0 0.0
vn 0.0 -1.0 0.0

v 72.00000 6.00000 -1.00000
v 72.00000 4.00000 -1.00000
v 45.00000 4.00000 -1.00000
v 45.00000 6.00000 -1.00000
v 69.00000 13.00000 -1.00000
v 69.00000 11.00000 -1.00000
v 51.00000 11.00000 -1.00000
v 51.00000 13.00000 -1.00000
v 74.00000 7.00000 -1.00000
v 74.00000 6.00000 -1.00000
v 45.00000 7.00000 -1.00000
v 75.00000 8.00000 -1.00000
v 75.00000 7.00000 -1.00000
v 45.00000 8.00000 -1.00000
v 71.00000 4.00000 -1.00000
v 71.00000 3.00000 -1.00000
v 46.00000 3.00000 -1.00000
v 46.00000 4.00000 -1.00000
v 75.00000 9.00000 -1.00000
v 47.00000 8.00000 -1.00000
v 47.00000 9.00000 -1.00000
v 70.00000 3.00000 -1.00000
v 70.00000 2.00000 -1.00000
v 48.00000 2.00000 -1.00000
v 48.00000 3.00000 -1.00000
v 74.00000 10.00000 -1.00000
v 74.00000 9.00000 -1.00000
v 48.00000 9.00000 -1.00000
v 48.00000 10.00000 -1.00000
v 72.00000 11.00000 -1.00000
v 72.00000 10.00000 -1.00000
v 48.00000 11.00000 -1.00000
v 67.00000 2.00000 -1.00000
v 67.00000 1.00000 -1.00000
v 50.00000 1.00000 -1.00000
v 50.00000 2.00000 -1.00000
v 64.00000 1.00000 -1.00000
v 64.00000 0.00000 -1.00000
v 51.00000 0.00000 -1.00000
v 51.00000 1.00000 -1.00000
v 68.00000 14.00000 -1.00000
v 68.00000 13.00000 -1.00000
v 54.00000 13.00000 -1.00000
v 54.00000 14.00000 -1.00000
v 67.00000 15.00000 -1.00000
v 67.00000 14.00000 -1.00000
v 61.00000 14.00000 -1.00000
v 61.00000 15.00000 -1.00000
v 58.00000 15.00000 -1.00000
v 58.00000 14.00000 -1.00000
v 54.00000 15.00000 -1.00000
v 65.00000 16.00000 -1.00000
v 65.00000 15.00000 -1.00000
v 62.00000 15.00000 -1.00000
v 62.00000 16.00000 -1.00000
v 45.00000 6.00000 0.00000
v 45.00000 4.00000 0.00000
v 72.00000 4.00000 0.00000
v 72.00000 6.00000 0.00000
v 51.00000 13.00000 0.00000
v 51.00000 11.00000 0.00000
v 69.00000 11.00000 0.00000
v 69.00000 13.00000 0.00000
v 45.00000 7.00000 0.00000
v 74.00000 6.00000 0.00000
v 74.00000 7.00000 0.00000
v 45.00000 8.00000 0.00000
v 75.00000 7.00000 0.00000
v 75.00000 8.00000 0.00000
v 46.00000 4.00000 0.00000
v 46.00000 3.00000 0.00000
v 71.00000 3.00000 0.00000
v 71.00000 4.00000 0.00000
v 47.00000 9.00000 0.00000
v 47.00000 8.00000 0.00000
v 75.00000 9.00000 0.00000
v 48.00000 3.00000 0.00000
v 48.00000 2.00000 0.00000
v 70.00000 2.00000 0.00000
v 70.00000 3.00000 0.00000
v 48.00000 10.00000 0.00000
v 48.00000 9.00000 0.00000
v 74.00000 9.00000 0.00000
v 74.00000 10.00000 0.00000
v 48.00000 11.00000 0.00000
v 72.00000 10.00000 0.00000
v 72.00000 11.00000 0.00000
v 50.00000 2.00000 0.00000
v 50.00000 1.00000 0.00000
v 67.00000 1.00000 0.00000
v 67.00000 2.00000 0.00000
v 51.00000 1.00000 0.00000
v 51.00000 0.00000 0.00000
v 64.00000 0.00000 0.00000
v 64.00000 1.00000 0.00000
v 54.00000 14.00000 0.00000
v 54.00000 13.00000 0.00000
v 68.00000 13.00000 0.00000
v 68.00000 14.00000 0.00000
v 61.00000 15.00000 0.00000
v 61.00000 14.00000 0.00000
v 67.00000 14.00000 0.00000
v 67.00000 15.00000 0.00000
v 54.00000 15.00000 0.00000
v 58.00000 14.00000 0.00000
v 58.00000 15.00000 0.00000
v 62.00000 16.00000 0.00000
v 62.00000 15.00000 0.00000
v 65.00000 15.00000 0.00000
v 65.00000 16.00000 0.00000

vt 0.01563 0.07813
vt 0.01563 0.01563
vt 0.03125 0.01563
vt 0.03125 0.07813
vt 0.06250 0.04688
vt 0.06250 0.01563
vt 0.48438 0.01563
vt 0.48438 0.04688
vt 0.51563 0.04688
vt 0.51563 0.01563
vt 0.93750 0.01563
vt 0.93750 0.04688
vt 0.01563 0.14063
vt 0.01563 0.10938
vt 0.29688 0.10938
vt 0.29688 0.14063
vt 0.32813 0.14063
vt 0.32813 0.10938
vt 0.60938 0.10938
vt 0.60938 0.14063
vt 0.96875 0.04688
vt 0.96875 0.01563
vt 0.98438 0.01563
vt 0.98438 0.04688
vt 0.64063 0.14063
vt 0.64063 0.10938
vt 0.65625 0.10938
vt 0.65625 0.14063
vt 0.68750 0.14063
vt 0.68750 0.10938
vt 0.70313 0.10938
vt 0.70313 0.14063
vt 0.73438 0.14063
vt 0.73438 0.10938
vt 0.75000 0.10938
vt 0.75000 0.14063
vt 0.78125 0.14063
vt 0.78125 0.10938
vt 0.79688 0.10938
vt 0.79688 0.14063
vt 0.82813 0.14063
vt 0.82813 0.10938
vt 0.84375 0.10938
vt 0.84375 0.14063
vt 0.01563 0.18750
vt 0.01563 0.17188
vt 0.48438 0.17188
vt 0.48438 0.18750
vt 0.51563 0.18750
vt 0.51563 0.17188
vt 0.98438 0.17188
vt 0.98438 0.18750
vt 0.01563 0.23438
vt 0.01563 0.21875
vt 0.46875 0.21875
vt 0.46875 0.23438
vt 0.50000 0.23438
vt 0.50000 0.21875
vt 0.95313 0.21875
vt 0.95313 0.23438
vt 0.01563 0.28125
vt 0.01563 0.26563
vt 0.45313 0.26563
vt 0.45313 0.28125
vt 0.48438 0.28125
vt 0.48438 0.26563
vt 0.92188 0.26563
vt 0.92188 0.28125
vt 0.01563 0.32813
vt 0.01563 0.31250
vt 0.42188 0.31250
vt 0.42188 0.32813
vt 0.45313 0.32813
vt 0.45313 0.31250
vt 0.85938 0.31250
vt 0.85938 0.32813
vt 0.01563 0.37500
vt 0.01563 0.35938
vt 0.40625 0.35938
vt 0.40625 0.37500
vt 0.43750 0.37500
vt 0.43750 0.35938
vt 0.82813 0.35938
vt 0.82813 0.37500
vt 0.01563 0.42188
vt 0.01563 0.40625
vt 0.39063 0.40625
vt 0.39063 0.42188
vt 0.42188 0.42188
vt 0.42188 0.40625
vt 0.79688 0.40625
vt 0.79688 0.42188
vt 0.01563 0.46875
vt 0.01563 0.45313
vt 0.35938 0.45313
vt 0.35938 0.46875
vt 0.39063 0.46875
vt 0.39063 0.45313
vt 0.73438 0.45313
vt 0.73438 0.46875
vt 0.01563 0.51563
vt 0.01563 0.50000
vt 0.28125 0.50000
vt 0.28125 0.51563
vt 0.31250 0.51563
vt 0.31250 0.50000
vt 0.57813 0.50000
vt 0.57813 0.51563
vt 0.76563 0.46875
vt 0.76563 0.45313
vt 0.98438 0.45313
vt 0.98438 0.46875
vt 0.60938 0.51563
vt 0.60938 0.50000
vt 0.82813 0.50000
vt 0.82813 0.51563
vt 0.01563 0.56250
vt 0.01563 0.54688
vt 0.21875 0.54688
vt 0.21875 0.56250
vt 0.25000 0.56250
vt 0.25000 0.54688
vt 0.45313 0.54688
vt 0.45313 0.56250
vt 0.48438 0.56250
vt 0.48438 0.54688
vt 0.68750 0.54688
vt 0.68750 0.56250
vt 0.87500 0.12500
vt 0.87500 0.10938
vt 0.96875 0.10938
vt 0.96875 0.12500
vt 0.89063 0.32813
vt 0.89063 0.31250
vt 0.98438 0.31250
vt 0.98438 0.32813
vt 0.85938 0.37500
vt 0.85938 0.35938
vt 0.92188 0.35938
vt 0.92188 0.37500
vt 0.82813 0.42188
vt 0.82813 0.40625
vt 0.89063 0.40625
vt 0.89063 0.42188
vt 0.92188 0.42188
vt 0.92188 0.40625
vt 0.98438 0.40625
vt 0.98438 0.42188
vt 0.85938 0.51563
vt 0.85938 0.50000
vt 0.90625 0.50000
vt 0.90625 0.51563
vt 0.93750 0.51563
vt 0.93750 0.50000
vt 0.98438 0.50000
vt 0.98438 0.51563
vt 0.71875 0.56250
vt 0.71875 0.54688
vt 0.76563 0.54688
vt 0.76563 0.56250
vt 0.79688 0.56250
vt 0.79688 0.54688
vt 0.84375 0.54688
vt 0.84375 0.56250
vt 0.87500 0.56250
vt 0.87500 0.54688
vt 0.92188 0.54688
vt 0.92188 0.56250
vt 0.01563 0.60938
vt 0.01563 0.59375
vt 0.06250 0.59375
vt 0.06250 0.60938
vt 0.09375 0.60938
vt 0.09375 0.59375
vt 0.14063 0.59375
vt 0.14063 0.60938
vt 0.17188 0.60938
vt 0.17188 0.59375
vt 0.21875 0.59375
vt 0.21875 0.60938
vt 0.25000 0.60938
vt 0.25000 0.59375
vt 0.29688 0.59375
vt 0.29688 0.60938
vt 0.95313 0.28125
vt 0.95313 0.26563
vt 0.98438 0.26563
vt 0.98438 0.28125
vt 0.95313 0.37500
vt 0.95313 0.35938
vt 0.98438 0.35938
vt 0.98438 0.37500
vt 0.95313 0.56250
vt 0.95313 0.54688
vt 0.98438 0.54688
vt 0.98438 0.56250
vt 0.32813 0.60938
vt 0.32813 0.59375
vt 0.35938 0.59375
vt 0.35938 0.60938
vt 0.39063 0.60938
vt 0.39063 0.59375
vt 0.42188 0.59375
vt 0.42188 0.60938
vt 0.45313 0.60938
vt 0.45313 0.59375
vt 0.48438 0.59375
vt 0.48438 0.60938
vt 0.51563 0.60938
vt 0.51563 0.59375
vt 0.53125 0.59375
vt 0.53125 0.60938
vt 0.56250 0.60938
vt 0.56250 0.59375
vt 0.57813 0.59375
vt 0.57813 0.60938
vt 0.60938 0.60938
vt 0.60938 0.59375
vt 0.62500 0.59375
vt 0.62500 0.60938
vt 0.65625 0.60938
vt 0.65625 0.59375
vt 0.67188 0.59375
vt 0.67188 0.60938
vt 0.70313 0.60938
vt 0.70313 0.59375
vt 0.71875 0.59375
vt 0.71875 0.60938
vt 0.75000 0.60938
vt 0.75000 0.59375
vt 0.76563 0.59375
vt 0.76563 0.60938
vt 0.79688 0.60938
vt 0.79688 0.59375
vt 0.81250 0.59375
vt 0.81250 0.60938
vt 0.84375 0.60938
vt 0.84375 0.59375
vt 0.85938 0.59375
vt 0.85938 0.60938
vt 0.89063 0.60938
vt 0.89063 0.59375
vt 0.90625 0.59375
vt 0.90625 0.60938
vt 0.93750 0.60938
vt 0.93750 0.59375
vt 0.95313 0.59375
vt 0.95313 0.60938
vt 0.01563 0.65625
vt 0.01563 0.64063
vt 0.03125 0.64063
vt 0.03125 0.65625
vt 0.06250 0.65625
vt 0.06250 0.64063
vt 0.07813 0.64063
vt 0.07813 0.65625
vt 0.10938 0.65625
vt 0.10938 0.64063
vt 0.12500 0.64063
vt 0.12500 0.65625
vt 0.15625 0.65625
vt 0.15625 0.64063
vt 0.17188 0.64063
vt 0.17188 0.65625
vt 0.20313 0.65625
vt 0.20313 0.64063
vt 0.21875 0.64063
vt 0.21875 0.65625
vt 0.25000 0.65625
vt 0.25000 0.64063
vt 0.26563 0.64063
vt 0.26563 0.65625
vt 0.29688 0.65625
vt 0.29688 0.64063
vt 0.31250 0.64063
vt 0.31250 0.65625
vt 0.34375 0.65625
vt 0.34375 0.64063
vt 0.35938 0.64063
vt 0.35938 0.65625
vt 0.39063 0.65625
vt 0.39063 0.64063
vt 0.40625 0.64063
vt 0.40625 0.65625
vt 0.43750 0.65625
vt 0.43750 0.64063
vt 0.45313 0.64063
vt 0.45313 0.65625
vt 0.48438 0.65625
vt 0.48438 0.64063
vt 0.50000 0.64063
vt 0.50000 0.65625
vt 0.53125 0.65625
vt 0.53125 0.64063
vt 0.54688 0.64063
vt 0.54688 0.65625
vt 0.57813 0.65625
vt 0.57813 0.64063
vt 0.59375 0.64063
vt 0.59375 0.65625
vt 0.62500 0.65625
vt 0.62500 0.64063
vt 0.64063 0.64063
vt 0.64063 0.65625
vt 0.67188 0.65625
vt 0.67188 0.64063
vt 0.68750 0.64063
vt 0.68750 0.65625
vt 0.71875 0.65625
vt 0.71875 0.64063
vt 0.73438 0.64063
vt 0.73438 0.65625
vt 0.76563 0.65625
vt 0.76563 0.64063
vt 0.78125 0.64063
vt 0.78125 0.65625
vt 0.81250 0.65625
vt 0.81250 0.64063
vt 0.82813 0.64063
vt 0.82813 0.65625

g cloud_3
usemtl cloud_3_Material
f 1/9/2 2/10/2 3/11/2 4/12/2
f 5/17/2 6/18/2 7/19/2 8/20/2
f 9/57/2 10/58/2 4/59/2 11/60/2
f 12/49/2 13/50/2 11/51/2 14/52/2
f 15/77/2 16/78/2 17/79/2 18/80/2
f 19/65/2 12/66/2 20/67/2 21/68/2
f 22/93/2 23/94/2 24/95/2 25/96/2
f 26/73/2 27/74/2 28/75/2 29/76/2
f 30/85/2 31/86/2 29/87/2 32/88/2
f 33/105/2 34/106/2 35/107/2 36/108/2
f 37/117/2 38/118/2 39/119/2 40/120/2
f 41/113/2 42/114/2 43/115/2 44/116/2
f 45/133/2 46/134/2 47/135/2 48/136/2
f 49/141/2 50/142/2 44/143/2 51/144/2
f 52/169/2 53/170/2 54/171/2 55/172/2
f 56/5/1 57/6/1 58/7/1 59/8/1
f 60/13/1 61/14/1 62/15/1 63/16/1
f 64/53/1 56/54/1 65/55/1 66/56/1
f 67/45/1 64/46/1 68/47/1 69/48/1
f 70/81/1 71/82/1 72/83/1 73/84/1
f 74/61/1 75/62/1 69/63/1 76/64/1
f 77/97/1 78/98/1 79/99/1 80/100/1
f 81/69/1 82/70/1 83/71/1 84/72/1
f 85/89/1 81/90/1 86/91/1 87/92/1
f 88/101/1 89/102/1 90/103/1 91/104/1
f 92/125/1 93/126/1 94/127/1 95/128/1
f 96/109/1 97/110/1 98/111/1 99/112/1
f 100/129/1 101/130/1 102/131/1 103/132/1
f 104/137/1 96/138/1 105/139/1 106/140/1
f 107/149/1 108/150/1 109/151/1 110/152/1
f 14/1/3 3/2/3 57/3/3 67/4/3
f 32/37/3 28/38/3 82/39/3 85/40/3
f 8/41/3 7/42/3 61/43/3 60/44/3
f 51/21/3 43/22/3 97/23/3 104/24/3
f 18/281/3 17/282/3 71/283/3 70/284/3
f 21/285/3 20/286/3 75/287/3 74/288/3
f 25/289/3 24/290/3 78/291/3 77/292/3
f 36/277/3 35/278/3 89/279/3 88/280/3
f 40/265/3 39/266/3 93/267/3 92/268/3
f 48/269/3 47/270/3 101/271/3 100/272/3
f 55/273/3 54/274/3 108/275/3 107/276/3
f 63/25/4 62/26/4 6/27/4 5/28/4
f 59/33/4 58/34/4 2/35/4 1/36/4
f 76/29/4 68/30/4 13/31/4 19/32/4
f 106/309/4 105/310/4 50/311/4 49/312/4
f 95/313/4 94/314/4 38/315/4 37/316/4
f 110/317/4 109/318/4 53/319/4 52/320/4
f 91/305/4 90/306/4 34/307/4 33/308/4
f 103/293/4 102/294/4 46/295/4 45/296/4
f 99/297/4 98/298/4 42/299/4 41/300/4
f 80/301/4 79/302/4 23/303/4 22/304/4
f 73/225/4 72/226/4 16/227/4 15/228/4
f 87/229/4 86/230/4 31/231/4 30/232/4
f 66/233/4 65/234/4 10/235/4 9/236/4
f 84/221/4 83/222/4 27/223/4 26/224/4
f 32/165/5 85/166/5 61/167/5 7/168/5
f 8/161/5 60/162/5 97/163/5 43/164/5
f 51/145/5 104/146/5 106/147/5 49/148/5
f 50/173/5 105/174/5 101/175/5 47/176/5
f 55/181/5 107/182/5 110/183/5 52/184/5
f 6/177/5 62/178/5 87/179/5 30/180/5
f 14/197/5 67/198/5 75/199/5 20/200/5
f 53/193/5 109/194/5 103/195/5 45/196/5
f 31/205/5 86/206/5 84/207/5 26/208/5
f 21/209/5 74/210/5 82/211/5 28/212/5
f 48/213/5 100/214/5 108/215/5 54/216/5
f 46/217/5 102/218/5 99/219/5 41/220/5
f 42/253/5 98/254/5 63/255/5 5/256/5
f 27/257/5 83/258/5 76/259/5 19/260/5
f 93/121/6 39/122/6 38/123/6 94/124/6
f 95/157/6 37/158/6 34/159/6 90/160/6
f 91/153/6 33/154/6 23/155/6 79/156/6
f 71/201/6 17/202/6 25/203/6 77/204/6
f 78/185/6 24/186/6 36/187/6 88/188/6
f 59/189/6 1/190/6 10/191/6 65/192/6
f 57/261/6 3/262/6 18/263/6 70/264/6
f 89/249/6 35/250/6 40/251/6 92/252/6
f 80/237/6 22/238/6 16/239/6 72/240/6
f 73/241/6 15/242/6 2/243/6 58/244/6
f 66/245/6 9/246/6 13/247/6 68/248/6
