# This file was created with Minddesk Qubicle 3.0
# Get Qubicle at www.getqubicle.com

mtllib macintosh.mtl

vn 0.0 0.0 1.0
vn 0.0 0.0 -1.0
vn -1.0 0.0 0.0
vn 1.0 0.0 0.0
vn 0.0 1.0 0.0
vn 0.0 -1.0 0.0

v 4.00000 9.00000 -4.00000
v 4.00000 0.00000 -4.00000
v -3.00000 0.00000 -4.00000
v -3.00000 9.00000 -4.00000
v -3.00000 9.00000 3.00000
v -3.00000 1.00000 3.00000
v 4.00000 1.00000 3.00000
v 4.00000 9.00000 3.00000
v -3.00000 1.00000 2.00000
v -3.00000 0.00000 2.00000
v 4.00000 0.00000 2.00000
v 4.00000 1.00000 2.00000
v -3.00000 1.00000 -4.00000
v 4.00000 1.00000 -4.00000

vt 0.03125 0.31250
vt 0.03125 0.03125
vt 0.25000 0.03125
vt 0.25000 0.31250
vt 0.31250 0.28125
vt 0.31250 0.03125
vt 0.53125 0.03125
vt 0.53125 0.28125
vt 0.59375 0.28125
vt 0.59375 0.03125
vt 0.81250 0.03125
vt 0.81250 0.28125
vt 0.03125 0.62500
vt 0.03125 0.37500
vt 0.25000 0.37500
vt 0.25000 0.62500
vt 0.31250 0.59375
vt 0.31250 0.37500
vt 0.53125 0.37500
vt 0.53125 0.59375
vt 0.59375 0.56250
vt 0.59375 0.37500
vt 0.81250 0.37500
vt 0.81250 0.56250
vt 0.03125 0.71875
vt 0.03125 0.68750
vt 0.25000 0.68750
vt 0.25000 0.71875
vt 0.31250 0.71875
vt 0.31250 0.68750
vt 0.53125 0.68750
vt 0.53125 0.71875
vt 0.59375 0.71875
vt 0.59375 0.68750
vt 0.78125 0.68750
vt 0.78125 0.71875
vt 0.03125 0.81250
vt 0.03125 0.78125
vt 0.21875 0.78125
vt 0.21875 0.81250

g Matrix
usemtl macintosh_Material
f 1/1/2 2/2/2 3/3/2 4/4/2
f 5/13/1 6/14/1 7/15/1 8/16/1
f 9/25/1 10/26/1 11/27/1 12/28/1
f 4/9/3 13/10/3 6/11/3 5/12/3
f 13/37/3 3/38/3 10/39/3 9/40/3
f 8/5/4 7/6/4 14/7/4 1/8/4
f 12/33/4 11/34/4 2/35/4 14/36/4
f 4/17/5 5/18/5 8/19/5 1/20/5
f 10/21/6 3/22/6 2/23/6 11/24/6
f 6/29/6 9/30/6 12/31/6 7/32/6
