# This file was created with Minddesk Qubicle 3.0
# Get Qubicle at www.getqubicle.com

mtllib mb_photo.mtl

vn 0.0 0.0 1.0
vn 0.0 0.0 -1.0
vn -1.0 0.0 0.0
vn 1.0 0.0 0.0
vn 0.0 1.0 0.0
vn 0.0 -1.0 0.0

v 6.00000 11.00000 0.00000
v 6.00000 0.00000 0.00000
v -5.00000 0.00000 0.00000
v -5.00000 11.00000 0.00000
v -5.00000 11.00000 1.00000
v -5.00000 0.00000 1.00000
v 6.00000 0.00000 1.00000
v 6.00000 11.00000 1.00000

vt 0.03125 0.75000
vt 0.03125 0.06250
vt 0.37500 0.06250
vt 0.37500 0.75000
vt 0.43750 0.75000
vt 0.43750 0.06250
vt 0.78125 0.06250
vt 0.78125 0.75000
vt 0.84375 0.75000
vt 0.84375 0.06250
vt 0.87500 0.06250
vt 0.87500 0.75000
vt 0.93750 0.75000
vt 0.93750 0.06250
vt 0.96875 0.06250
vt 0.96875 0.75000
vt 0.03125 0.93750
vt 0.03125 0.87500
vt 0.37500 0.87500
vt 0.37500 0.93750
vt 0.43750 0.93750
vt 0.43750 0.87500
vt 0.78125 0.87500
vt 0.78125 0.93750

g Matrix
usemtl mb_photo_Material
f 1/5/2 2/6/2 3/7/2 4/8/2
f 5/1/1 6/2/1 7/3/1 8/4/1
f 4/9/3 3/10/3 6/11/3 5/12/3
f 8/13/4 7/14/4 2/15/4 1/16/4
f 4/21/5 5/22/5 8/23/5 1/24/5
f 6/17/6 3/18/6 2/19/6 7/20/6
