# This file was created with Minddesk Qubicle 3.0
# Get Qubicle at www.getqubicle.com

mtllib cloud_1.mtl

vn 0.0 0.0 1.0
vn 0.0 0.0 -1.0
vn -1.0 0.0 0.0
vn 1.0 0.0 0.0
vn 0.0 1.0 0.0
vn 0.0 -1.0 0.0

v -48.00000 3.00000 -1.00000
v -48.00000 2.00000 -1.00000
v -77.00000 2.00000 -1.00000
v -77.00000 3.00000 -1.00000
v -49.00000 4.00000 -1.00000
v -49.00000 3.00000 -1.00000
v -77.00000 4.00000 -1.00000
v -51.00000 5.00000 -1.00000
v -51.00000 4.00000 -1.00000
v -76.00000 4.00000 -1.00000
v -76.00000 5.00000 -1.00000
v -50.00000 2.00000 -1.00000
v -50.00000 1.00000 -1.00000
v -75.00000 1.00000 -1.00000
v -75.00000 2.00000 -1.00000
v -51.00000 6.00000 -1.00000
v -75.00000 5.00000 -1.00000
v -75.00000 6.00000 -1.00000
v -52.00000 7.00000 -1.00000
v -52.00000 6.00000 -1.00000
v -75.00000 7.00000 -1.00000
v -52.00000 8.00000 -1.00000
v -74.00000 7.00000 -1.00000
v -74.00000 8.00000 -1.00000
v -52.00000 1.00000 -1.00000
v -52.00000 0.00000 -1.00000
v -73.00000 0.00000 -1.00000
v -73.00000 1.00000 -1.00000
v -53.00000 9.00000 -1.00000
v -53.00000 8.00000 -1.00000
v -73.00000 8.00000 -1.00000
v -73.00000 9.00000 -1.00000
v -55.00000 10.00000 -1.00000
v -55.00000 9.00000 -1.00000
v -73.00000 10.00000 -1.00000
v -55.00000 11.00000 -1.00000
v -72.00000 10.00000 -1.00000
v -72.00000 11.00000 -1.00000
v -62.00000 12.00000 -1.00000
v -62.00000 11.00000 -1.00000
v -71.00000 11.00000 -1.00000
v -71.00000 12.00000 -1.00000
v -62.00000 13.00000 -1.00000
v -70.00000 12.00000 -1.00000
v -70.00000 13.00000 -1.00000
v -64.00000 14.00000 -1.00000
v -64.00000 13.00000 -1.00000
v -68.00000 13.00000 -1.00000
v -68.00000 14.00000 -1.00000
v -57.00000 12.00000 -1.00000
v -57.00000 11.00000 -1.00000
v -59.00000 11.00000 -1.00000
v -59.00000 12.00000 -1.00000
v -77.00000 3.00000 0.00000
v -77.00000 2.00000 0.00000
v -48.00000 2.00000 0.00000
v -48.00000 3.00000 0.00000
v -77.00000 4.00000 0.00000
v -49.00000 3.00000 0.00000
v -49.00000 4.00000 0.00000
v -76.00000 5.00000 0.00000
v -76.00000 4.00000 0.00000
v -51.00000 4.00000 0.00000
v -51.00000 5.00000 0.00000
v -75.00000 2.00000 0.00000
v -75.00000 1.00000 0.00000
v -50.00000 1.00000 0.00000
v -50.00000 2.00000 0.00000
v -75.00000 6.00000 0.00000
v -75.00000 5.00000 0.00000
v -51.00000 6.00000 0.00000
v -75.00000 7.00000 0.00000
v -52.00000 6.00000 0.00000
v -52.00000 7.00000 0.00000
v -74.00000 8.00000 0.00000
v -74.00000 7.00000 0.00000
v -52.00000 8.00000 0.00000
v -73.00000 1.00000 0.00000
v -73.00000 0.00000 0.00000
v -52.00000 0.00000 0.00000
v -52.00000 1.00000 0.00000
v -73.00000 9.00000 0.00000
v -73.00000 8.00000 0.00000
v -53.00000 8.00000 0.00000
v -53.00000 9.00000 0.00000
v -73.00000 10.00000 0.00000
v -55.00000 9.00000 0.00000
v -55.00000 10.00000 0.00000
v -72.00000 11.00000 0.00000
v -72.00000 10.00000 0.00000
v -55.00000 11.00000 0.00000
v -71.00000 12.00000 0.00000
v -71.00000 11.00000 0.00000
v -62.00000 11.00000 0.00000
v -62.00000 12.00000 0.00000
v -70.00000 13.00000 0.00000
v -70.00000 12.00000 0.00000
v -62.00000 13.00000 0.00000
v -68.00000 14.00000 0.00000
v -68.00000 13.00000 0.00000
v -64.00000 13.00000 0.00000
v -64.00000 14.00000 0.00000
v -59.00000 12.00000 0.00000
v -59.00000 11.00000 0.00000
v -57.00000 11.00000 0.00000
v -57.00000 12.00000 0.00000

vt 0.01563 0.04688
vt 0.01563 0.01563
vt 0.03125 0.01563
vt 0.03125 0.04688
vt 0.06250 0.04688
vt 0.06250 0.01563
vt 0.07813 0.01563
vt 0.07813 0.04688
vt 0.10938 0.04688
vt 0.10938 0.01563
vt 0.12500 0.01563
vt 0.12500 0.04688
vt 0.15625 0.04688
vt 0.15625 0.01563
vt 0.17188 0.01563
vt 0.17188 0.04688
vt 0.20313 0.04688
vt 0.20313 0.01563
vt 0.21875 0.01563
vt 0.21875 0.04688
vt 0.25000 0.04688
vt 0.25000 0.01563
vt 0.26563 0.01563
vt 0.26563 0.04688
vt 0.29688 0.04688
vt 0.29688 0.01563
vt 0.31250 0.01563
vt 0.31250 0.04688
vt 0.34375 0.03125
vt 0.34375 0.01563
vt 0.79688 0.01563
vt 0.79688 0.03125
vt 0.01563 0.09375
vt 0.01563 0.07813
vt 0.46875 0.07813
vt 0.46875 0.09375
vt 0.50000 0.09375
vt 0.50000 0.07813
vt 0.93750 0.07813
vt 0.93750 0.09375
vt 0.01563 0.14063
vt 0.01563 0.12500
vt 0.45313 0.12500
vt 0.45313 0.14063
vt 0.48438 0.14063
vt 0.48438 0.12500
vt 0.87500 0.12500
vt 0.87500 0.14063
vt 0.01563 0.18750
vt 0.01563 0.17188
vt 0.40625 0.17188
vt 0.40625 0.18750
vt 0.43750 0.18750
vt 0.43750 0.17188
vt 0.82813 0.17188
vt 0.82813 0.18750
vt 0.01563 0.23438
vt 0.01563 0.21875
vt 0.40625 0.21875
vt 0.40625 0.23438
vt 0.43750 0.23438
vt 0.43750 0.21875
vt 0.81250 0.21875
vt 0.81250 0.23438
vt 0.01563 0.28125
vt 0.01563 0.26563
vt 0.39063 0.26563
vt 0.39063 0.28125
vt 0.42188 0.28125
vt 0.42188 0.26563
vt 0.78125 0.26563
vt 0.78125 0.28125
vt 0.01563 0.32813
vt 0.01563 0.31250
vt 0.37500 0.31250
vt 0.37500 0.32813
vt 0.40625 0.32813
vt 0.40625 0.31250
vt 0.75000 0.31250
vt 0.75000 0.32813
vt 0.01563 0.37500
vt 0.01563 0.35938
vt 0.35938 0.35938
vt 0.35938 0.37500
vt 0.39063 0.37500
vt 0.39063 0.35938
vt 0.71875 0.35938
vt 0.71875 0.37500
vt 0.01563 0.42188
vt 0.01563 0.40625
vt 0.34375 0.40625
vt 0.34375 0.42188
vt 0.37500 0.42188
vt 0.37500 0.40625
vt 0.70313 0.40625
vt 0.70313 0.42188
vt 0.01563 0.46875
vt 0.01563 0.45313
vt 0.32813 0.45313
vt 0.32813 0.46875
vt 0.35938 0.46875
vt 0.35938 0.45313
vt 0.67188 0.45313
vt 0.67188 0.46875
vt 0.70313 0.46875
vt 0.70313 0.45313
vt 0.98438 0.45313
vt 0.98438 0.46875
vt 0.01563 0.51563
vt 0.01563 0.50000
vt 0.29688 0.50000
vt 0.29688 0.51563
vt 0.32813 0.51563
vt 0.32813 0.50000
vt 0.59375 0.50000
vt 0.59375 0.51563
vt 0.62500 0.51563
vt 0.62500 0.50000
vt 0.89063 0.50000
vt 0.89063 0.51563
vt 0.82813 0.03125
vt 0.82813 0.01563
vt 0.96875 0.01563
vt 0.96875 0.03125
vt 0.84375 0.23438
vt 0.84375 0.21875
vt 0.98438 0.21875
vt 0.98438 0.23438
vt 0.85938 0.18750
vt 0.85938 0.17188
vt 0.98438 0.17188
vt 0.98438 0.18750
vt 0.81250 0.28125
vt 0.81250 0.26563
vt 0.93750 0.26563
vt 0.93750 0.28125
vt 0.90625 0.14063
vt 0.90625 0.12500
vt 0.96875 0.12500
vt 0.96875 0.14063
vt 0.78125 0.32813
vt 0.78125 0.31250
vt 0.84375 0.31250
vt 0.84375 0.32813
vt 0.87500 0.32813
vt 0.87500 0.31250
vt 0.93750 0.31250
vt 0.93750 0.32813
vt 0.75000 0.37500
vt 0.75000 0.35938
vt 0.79688 0.35938
vt 0.79688 0.37500
vt 0.82813 0.37500
vt 0.82813 0.35938
vt 0.85938 0.35938
vt 0.85938 0.37500
vt 0.89063 0.37500
vt 0.89063 0.35938
vt 0.92188 0.35938
vt 0.92188 0.37500
vt 0.95313 0.37500
vt 0.95313 0.35938
vt 0.98438 0.35938
vt 0.98438 0.37500
vt 0.73438 0.42188
vt 0.73438 0.40625
vt 0.76563 0.40625
vt 0.76563 0.42188
vt 0.79688 0.42188
vt 0.79688 0.40625
vt 0.82813 0.40625
vt 0.82813 0.42188
vt 0.85938 0.42188
vt 0.85938 0.40625
vt 0.89063 0.40625
vt 0.89063 0.42188
vt 0.92188 0.42188
vt 0.92188 0.40625
vt 0.95313 0.40625
vt 0.95313 0.42188
vt 0.92188 0.51563
vt 0.92188 0.50000
vt 0.95313 0.50000
vt 0.95313 0.51563
vt 0.01563 0.56250
vt 0.01563 0.54688
vt 0.04688 0.54688
vt 0.04688 0.56250
vt 0.07813 0.56250
vt 0.07813 0.54688
vt 0.10938 0.54688
vt 0.10938 0.56250
vt 0.14063 0.56250
vt 0.14063 0.54688
vt 0.17188 0.54688
vt 0.17188 0.56250
vt 0.20313 0.56250
vt 0.20313 0.54688
vt 0.23438 0.54688
vt 0.23438 0.56250
vt 0.96875 0.09375
vt 0.96875 0.07813
vt 0.98438 0.07813
vt 0.98438 0.09375
vt 0.96875 0.28125
vt 0.96875 0.26563
vt 0.98438 0.26563
vt 0.98438 0.28125
vt 0.96875 0.32813
vt 0.96875 0.31250
vt 0.98438 0.31250
vt 0.98438 0.32813
vt 0.26563 0.56250
vt 0.26563 0.54688
vt 0.28125 0.54688
vt 0.28125 0.56250
vt 0.31250 0.56250
vt 0.31250 0.54688
vt 0.32813 0.54688
vt 0.32813 0.56250
vt 0.35938 0.56250
vt 0.35938 0.54688
vt 0.37500 0.54688
vt 0.37500 0.56250
vt 0.40625 0.56250
vt 0.40625 0.54688
vt 0.42188 0.54688
vt 0.42188 0.56250
vt 0.45313 0.56250
vt 0.45313 0.54688
vt 0.46875 0.54688
vt 0.46875 0.56250
vt 0.50000 0.56250
vt 0.50000 0.54688
vt 0.51563 0.54688
vt 0.51563 0.56250
vt 0.54688 0.56250
vt 0.54688 0.54688
vt 0.56250 0.54688
vt 0.56250 0.56250
vt 0.59375 0.56250
vt 0.59375 0.54688
vt 0.60938 0.54688
vt 0.60938 0.56250
vt 0.64063 0.56250
vt 0.64063 0.54688
vt 0.65625 0.54688
vt 0.65625 0.56250
vt 0.68750 0.56250
vt 0.68750 0.54688
vt 0.70313 0.54688
vt 0.70313 0.56250
vt 0.73438 0.56250
vt 0.73438 0.54688
vt 0.75000 0.54688
vt 0.75000 0.56250
vt 0.78125 0.56250
vt 0.78125 0.54688
vt 0.79688 0.54688
vt 0.79688 0.56250
vt 0.82813 0.56250
vt 0.82813 0.54688
vt 0.84375 0.54688
vt 0.84375 0.56250
vt 0.87500 0.56250
vt 0.87500 0.54688
vt 0.89063 0.54688
vt 0.89063 0.56250
vt 0.92188 0.56250
vt 0.92188 0.54688
vt 0.93750 0.54688
vt 0.93750 0.56250
vt 0.96875 0.56250
vt 0.96875 0.54688
vt 0.98438 0.54688
vt 0.98438 0.56250
vt 0.01563 0.60938
vt 0.01563 0.59375
vt 0.03125 0.59375
vt 0.03125 0.60938
vt 0.06250 0.60938
vt 0.06250 0.59375
vt 0.07813 0.59375
vt 0.07813 0.60938
vt 0.10938 0.60938
vt 0.10938 0.59375
vt 0.12500 0.59375
vt 0.12500 0.60938
vt 0.15625 0.60938
vt 0.15625 0.59375
vt 0.17188 0.59375
vt 0.17188 0.60938
vt 0.20313 0.60938
vt 0.20313 0.59375
vt 0.21875 0.59375
vt 0.21875 0.60938
vt 0.25000 0.60938
vt 0.25000 0.59375
vt 0.26563 0.59375
vt 0.26563 0.60938
vt 0.29688 0.60938
vt 0.29688 0.59375
vt 0.31250 0.59375
vt 0.31250 0.60938

g cloud_1
usemtl cloud_1_Material
f 1/33/2 2/34/2 3/35/2 4/36/2
f 5/41/2 6/42/2 4/43/2 7/44/2
f 8/49/2 9/50/2 10/51/2 11/52/2
f 12/53/2 13/54/2 14/55/2 15/56/2
f 16/61/2 8/62/2 17/63/2 18/64/2
f 19/73/2 20/74/2 18/75/2 21/76/2
f 22/81/2 19/82/2 23/83/2 24/84/2
f 25/89/2 26/90/2 27/91/2 28/92/2
f 29/97/2 30/98/2 31/99/2 32/100/2
f 33/105/2 34/106/2 32/107/2 35/108/2
f 36/117/2 33/118/2 37/119/2 38/120/2
f 39/125/2 40/126/2 41/127/2 42/128/2
f 43/133/2 39/134/2 44/135/2 45/136/2
f 46/145/2 47/146/2 48/147/2 49/148/2
f 50/185/2 51/186/2 52/187/2 53/188/2
f 54/29/1 55/30/1 56/31/1 57/32/1
f 58/37/1 54/38/1 59/39/1 60/40/1
f 61/57/1 62/58/1 63/59/1 64/60/1
f 65/45/1 66/46/1 67/47/1 68/48/1
f 69/65/1 70/66/1 64/67/1 71/68/1
f 72/69/1 69/70/1 73/71/1 74/72/1
f 75/77/1 76/78/1 74/79/1 77/80/1
f 78/93/1 79/94/1 80/95/1 81/96/1
f 82/101/1 83/102/1 84/103/1 85/104/1
f 86/109/1 82/110/1 87/111/1 88/112/1
f 89/113/1 90/114/1 88/115/1 91/116/1
f 92/121/1 93/122/1 94/123/1 95/124/1
f 96/129/1 97/130/1 95/131/1 98/132/1
f 99/141/1 100/142/1 101/143/1 102/144/1
f 103/161/1 104/162/1 105/163/1 106/164/1
f 7/25/3 3/26/3 55/27/3 58/28/3
f 21/13/3 17/14/3 70/15/3 72/16/3
f 35/1/3 31/2/3 83/3/3 86/4/3
f 11/265/3 10/266/3 62/267/3 61/268/3
f 15/269/3 14/270/3 66/271/3 65/272/3
f 24/273/3 23/274/3 76/275/3 75/276/3
f 28/253/3 27/254/3 79/255/3 78/256/3
f 38/257/3 37/258/3 90/259/3 89/260/3
f 42/261/3 41/262/3 93/263/3 92/264/3
f 45/277/3 44/278/3 97/279/3 96/280/3
f 49/293/3 48/294/3 100/295/3 99/296/3
f 53/297/3 52/298/3 104/299/3 103/300/3
f 98/5/4 94/6/4 40/7/4 43/8/4
f 91/17/4 87/18/4 34/19/4 36/20/4
f 77/21/4 73/22/4 20/23/4 22/24/4
f 71/9/4 63/10/4 9/11/4 16/12/4
f 102/301/4 101/302/4 47/303/4 46/304/4
f 106/281/4 105/282/4 51/283/4 50/284/4
f 85/285/4 84/286/4 30/287/4 29/288/4
f 81/289/4 80/290/4 26/291/4 25/292/4
f 68/213/4 67/214/4 13/215/4 12/216/4
f 60/217/4 59/218/4 6/219/4 5/220/4
f 57/221/4 56/222/4 2/223/4 1/224/4
f 49/137/5 99/138/5 102/139/5 46/140/5
f 40/149/5 94/150/5 104/151/5 52/152/5
f 45/181/5 96/182/5 100/183/5 48/184/5
f 47/177/5 101/178/5 98/179/5 43/180/5
f 53/197/5 103/198/5 106/199/5 50/200/5
f 51/193/5 105/194/5 91/195/5 36/196/5
f 34/189/5 87/190/5 85/191/5 29/192/5
f 9/173/5 63/174/5 60/175/5 5/176/5
f 7/201/5 58/202/5 62/203/5 10/204/5
f 11/205/5 61/206/5 70/207/5 17/208/5
f 21/209/5 72/210/5 76/211/5 23/212/5
f 24/225/5 75/226/5 83/227/5 31/228/5
f 35/241/5 86/242/5 90/243/5 37/244/5
f 38/245/5 89/246/5 93/247/5 41/248/5
f 42/249/5 92/250/5 97/251/5 44/252/5
f 30/229/5 84/230/5 77/231/5 22/232/5
f 20/233/5 73/234/5 71/235/5 16/236/5
f 6/237/5 59/238/5 57/239/5 1/240/5
f 79/85/6 27/86/6 26/87/6 80/88/6
f 55/153/6 3/154/6 15/155/6 65/156/6
f 66/157/6 14/158/6 28/159/6 78/160/6
f 81/169/6 25/170/6 13/171/6 67/172/6
f 68/165/6 12/166/6 2/167/6 56/168/6
