# This file was created with Minddesk Qubicle 3.0
# Get Qubicle at www.getqubicle.com

mtllib heart.mtl

vn 0.0 0.0 1.0
vn 0.0 0.0 -1.0
vn -1.0 0.0 0.0
vn 1.0 0.0 0.0
vn 0.0 1.0 0.0
vn 0.0 -1.0 0.0

v -3.00000 4.00000 0.00000
v -3.00000 3.00000 0.00000
v -3.00000 3.00000 1.00000
v -3.00000 4.00000 1.00000
v -2.00000 3.00000 0.00000
v -2.00000 3.00000 1.00000
v -2.00000 4.00000 0.00000
v -2.00000 4.00000 1.00000
v -3.00000 5.00000 0.00000
v -3.00000 5.00000 1.00000
v -2.00000 5.00000 1.00000
v -2.00000 5.00000 0.00000
v -2.00000 2.00000 0.00000
v -2.00000 2.00000 1.00000
v -1.00000 2.00000 0.00000
v -1.00000 2.00000 1.00000
v -1.00000 3.00000 0.00000
v -1.00000 3.00000 1.00000
v -1.00000 4.00000 0.00000
v -1.00000 4.00000 1.00000
v -1.00000 5.00000 0.00000
v -1.00000 5.00000 1.00000
v -2.00000 6.00000 0.00000
v -2.00000 6.00000 1.00000
v -1.00000 6.00000 1.00000
v -1.00000 6.00000 0.00000
v -1.00000 1.00000 0.00000
v -1.00000 1.00000 1.00000
v 0.00000 1.00000 0.00000
v 0.00000 1.00000 1.00000
v 0.00000 2.00000 0.00000
v 0.00000 2.00000 1.00000
v 0.00000 3.00000 0.00000
v 0.00000 3.00000 1.00000
v 0.00000 4.00000 0.00000
v 0.00000 4.00000 1.00000
v 0.00000 5.00000 1.00000
v 0.00000 5.00000 0.00000
v 0.00000 6.00000 1.00000
v 0.00000 6.00000 0.00000
v 1.00000 1.00000 1.00000
v 1.00000 0.00000 1.00000
v 1.00000 0.00000 0.00000
v 1.00000 1.00000 0.00000
v 0.00000 0.00000 0.00000
v 0.00000 0.00000 1.00000
v 1.00000 2.00000 0.00000
v 1.00000 2.00000 1.00000
v 1.00000 3.00000 0.00000
v 1.00000 3.00000 1.00000
v 1.00000 4.00000 1.00000
v 1.00000 4.00000 0.00000
v 2.00000 2.00000 1.00000
v 2.00000 1.00000 1.00000
v 2.00000 1.00000 0.00000
v 2.00000 2.00000 0.00000
v 2.00000 3.00000 0.00000
v 2.00000 3.00000 1.00000
v 2.00000 4.00000 0.00000
v 2.00000 4.00000 1.00000
v 1.00000 5.00000 0.00000
v 1.00000 5.00000 1.00000
v 2.00000 5.00000 0.00000
v 2.00000 5.00000 1.00000
v 1.00000 6.00000 0.00000
v 1.00000 6.00000 1.00000
v 2.00000 6.00000 1.00000
v 2.00000 6.00000 0.00000
v 3.00000 3.00000 1.00000
v 3.00000 2.00000 1.00000
v 3.00000 2.00000 0.00000
v 3.00000 3.00000 0.00000
v 3.00000 4.00000 0.00000
v 3.00000 4.00000 1.00000
v 3.00000 5.00000 0.00000
v 3.00000 5.00000 1.00000
v 3.00000 6.00000 1.00000
v 3.00000 6.00000 0.00000
v 4.00000 4.00000 1.00000
v 4.00000 3.00000 1.00000
v 4.00000 3.00000 0.00000
v 4.00000 4.00000 0.00000
v 4.00000 5.00000 1.00000
v 4.00000 5.00000 0.00000

vt 0.06250 0.50000
vt 0.06250 0.25000
vt 0.12500 0.25000
vt 0.12500 0.50000
vt 0.25000 0.50000
vt 0.25000 0.25000
vt 0.31250 0.25000
vt 0.31250 0.50000

g Matrix
usemtl heart_Material
f 1/1/3 2/2/3 3/3/3 4/4/3
f 3/1/6 2/2/6 5/3/6 6/4/6
f 7/1/2 5/2/2 2/3/2 1/4/2
f 4/1/1 3/2/1 6/3/1 8/4/1
f 9/1/3 1/2/3 4/3/3 10/4/3
f 9/1/5 10/2/5 11/3/5 12/4/5
f 12/1/2 7/2/2 1/3/2 9/4/2
f 10/1/1 4/2/1 8/3/1 11/4/1
f 5/1/3 13/2/3 14/3/3 6/4/3
f 14/1/6 13/2/6 15/3/6 16/4/6
f 17/1/2 15/2/2 13/3/2 5/4/2
f 6/1/1 14/2/1 16/3/1 18/4/1
f 19/5/2 17/6/2 5/7/2 7/8/2
f 8/5/1 6/6/1 18/7/1 20/8/1
f 21/5/2 19/6/2 7/7/2 12/8/2
f 11/5/1 8/6/1 20/7/1 22/8/1
f 23/1/3 12/2/3 11/3/3 24/4/3
f 23/1/5 24/2/5 25/3/5 26/4/5
f 26/1/2 21/2/2 12/3/2 23/4/2
f 24/1/1 11/2/1 22/3/1 25/4/1
f 15/1/3 27/2/3 28/3/3 16/4/3
f 28/1/6 27/2/6 29/3/6 30/4/6
f 31/1/2 29/2/2 27/3/2 15/4/2
f 16/1/1 28/2/1 30/3/1 32/4/1
f 33/5/2 31/6/2 15/7/2 17/8/2
f 18/5/1 16/6/1 32/7/1 34/8/1
f 35/5/2 33/6/2 17/7/2 19/8/2
f 20/5/1 18/6/1 34/7/1 36/8/1
f 37/5/4 36/6/4 35/7/4 38/8/4
f 38/5/2 35/6/2 19/7/2 21/8/2
f 22/5/1 20/6/1 36/7/1 37/8/1
f 39/1/4 37/2/4 38/3/4 40/4/4
f 26/1/5 25/2/5 39/3/5 40/4/5
f 40/1/2 38/2/2 21/3/2 26/4/2
f 25/1/1 22/2/1 37/3/1 39/4/1
f 41/1/4 42/2/4 43/3/4 44/4/4
f 29/1/3 45/2/3 46/3/3 30/4/3
f 46/1/6 45/2/6 43/3/6 42/4/6
f 44/1/2 43/2/2 45/3/2 29/4/2
f 30/1/1 46/2/1 42/3/1 41/4/1
f 47/5/2 44/6/2 29/7/2 31/8/2
f 32/5/1 30/6/1 41/7/1 48/8/1
f 49/5/2 47/6/2 31/7/2 33/8/2
f 34/5/1 32/6/1 48/7/1 50/8/1
f 35/5/5 36/6/5 51/7/5 52/8/5
f 52/5/2 49/6/2 33/7/2 35/8/2
f 36/5/1 34/6/1 50/7/1 51/8/1
f 53/1/4 54/2/4 55/3/4 56/4/4
f 41/1/6 44/2/6 55/3/6 54/4/6
f 56/1/2 55/2/2 44/3/2 47/4/2
f 48/1/1 41/2/1 54/3/1 53/4/1
f 57/5/2 56/6/2 47/7/2 49/8/2
f 50/5/1 48/6/1 53/7/1 58/8/1
f 59/5/2 57/6/2 49/7/2 52/8/2
f 51/5/1 50/6/1 58/7/1 60/8/1
f 61/5/3 52/6/3 51/7/3 62/8/3
f 63/5/2 59/6/2 52/7/2 61/8/2
f 62/5/1 51/6/1 60/7/1 64/8/1
f 65/1/3 61/2/3 62/3/3 66/4/3
f 65/1/5 66/2/5 67/3/5 68/4/5
f 68/1/2 63/2/2 61/3/2 65/4/2
f 66/1/1 62/2/1 64/3/1 67/4/1
f 69/1/4 70/2/4 71/3/4 72/4/4
f 53/1/6 56/2/6 71/3/6 70/4/6
f 72/1/2 71/2/2 56/3/2 57/4/2
f 58/1/1 53/2/1 70/3/1 69/4/1
f 73/5/2 72/6/2 57/7/2 59/8/2
f 60/5/1 58/6/1 69/7/1 74/8/1
f 75/5/2 73/6/2 59/7/2 63/8/2
f 64/5/1 60/6/1 74/7/1 76/8/1
f 77/1/4 76/2/4 75/3/4 78/4/4
f 68/1/5 67/2/5 77/3/5 78/4/5
f 78/1/2 75/2/2 63/3/2 68/4/2
f 67/1/1 64/2/1 76/3/1 77/4/1
f 79/1/4 80/2/4 81/3/4 82/4/4
f 69/1/6 72/2/6 81/3/6 80/4/6
f 82/1/2 81/2/2 72/3/2 73/4/2
f 74/1/1 69/2/1 80/3/1 79/4/1
f 83/1/4 79/2/4 82/3/4 84/4/4
f 75/1/5 76/2/5 83/3/5 84/4/5
f 84/1/2 82/2/2 73/3/2 75/4/2
f 76/1/1 74/2/1 79/3/1 83/4/1
